<?xml version="1.0" encoding="UTF-8"?>
<svg id="_Слой_1" data-name="Слой 1" xmlns="http://www.w3.org/2000/svg" viewBox="0 0 760.4 300.42">
  <defs>
    <style>
      .cls-1 {
        fill: #fff;
        stroke-width: 0px;
      }
    </style>
  </defs>
  <polygon class="cls-1" points="375.35 61.82 358.35 119.64 380.35 119.64 325.73 187.26 343.54 130.84 318.53 130.84 375.35 61.82"/>
  <g>
    <g>
      <path class="cls-1" d="m61.53,146.82v18.62H0v-79.5h23.36v60.88h38.17Z"/>
      <path class="cls-1" d="m77.1,155.14c-7.43-7.14-11.88-17.62-11.88-29.57-.35-23.71,17.97-41.15,42.21-40.8,12,0,22.77,4.22,30.09,11.36,7.32,7.14,11.77,17.62,11.77,29.51s-4.45,22.42-11.77,29.57c-7.32,7.14-18.09,11.41-30.09,11.41s-22.89-4.33-30.33-11.47Zm16.98-14.93c3.45,3.75,7.9,5.62,13.46,5.62s9.78-1.87,13.11-5.62c3.34-3.69,4.98-8.55,4.98-14.58s-1.64-10.71-4.98-14.4c-3.34-3.69-7.73-5.5-13.11-5.5s-10.01,1.81-13.46,5.5c-3.45,3.69-5.15,8.49-5.15,14.4s1.7,10.89,5.15,14.58Z"/>
      <path class="cls-1" d="m174.8,165.44h-24.94l30.56-79.5h27.87l30.5,79.5h-24.94l-5.15-13.29h-28.75l-5.15,13.29Zm19.55-57.49l-9.13,26.58h18.21l-9.07-26.58Z"/>
    </g>
    <g>
      <path class="cls-1" d="m489.53,165.44h-23.24v-79.5h40.1c7.84,0,14.46,2.46,19.9,7.44,5.39,4.98,8.08,11.24,8.08,18.91,0,10.54-5.56,19.03-14.28,23.48l16.1,29.74h-24.88l-13.99-26.7h-7.79v26.64Zm0-60.59v15.8h12.94c2.4,0,4.39-.82,5.91-2.52,1.46-1.64,2.22-3.57,2.22-5.85,0-4.27-3.16-7.43-8.14-7.43h-12.94Z"/>
      <path class="cls-1" d="m549.18,165.44v-79.5h58.08v18.73h-34.78v11.01h30.5v18.68h-30.5v12.41h35.36v18.67h-58.66Z"/>
      <path class="cls-1" d="m634.36,136.58c4.68,6.97,11.24,10.71,18.56,10.71,5.09,0,8.96-2.22,8.96-5.21,0-1.64-.88-2.93-2.58-3.81-1.7-.88-5.21-2.05-10.42-3.63-.58-.18-1.11-.41-1.75-.53-4.51-1.35-6.85-2.05-10.95-3.87-3.98-1.7-6.44-3.28-9.25-5.85-4.1-3.69-6.21-8.49-6.38-15.34,0-4.8,1.46-9.08,4.39-12.88,2.87-3.75,6.61-6.62,11.24-8.55,4.57-1.93,9.48-2.87,14.75-2.87,14.28,0,24.06,6.26,31.26,17.45l-15.86,11.01c-3.28-5.45-9.08-9.19-15.63-9.19-4.16,0-7.55,1.76-7.55,4.98s3.69,5.15,10.71,7.2c6.5,1.82,10.95,3.34,15.86,5.56,2.46,1.11,4.51,2.34,6.21,3.63,5.21,4.04,8.55,9.13,8.55,16.74s-4.1,14.46-10.24,18.38c-6.15,3.92-13.76,6.09-21.48,6.09-15.63,0-27.99-6.67-35.07-18.38l16.68-11.65Z"/>
      <path class="cls-1" d="m691.14,105.03v-19.08h69.26v19.08h-23.24v60.42h-23.36v-60.42h-22.66Z"/>
    </g>
    <polygon class="cls-1" points="375.35 61.82 358.35 119.64 380.35 119.64 325.73 187.26 343.54 130.84 318.53 130.84 375.35 61.82"/>
    <g>
      <path class="cls-1" d="m393.99,106.79c4.48-4.87,10.41-7.3,17.94-7.3,10.11,0,17.79,4.87,22.88,14.6l22.05-15.28c-4.18-7.83-10.34-14.14-18.4-18.85-8.06-4.64-16.88-6.99-26.53-6.99-10.72,0-20.3,2.28-28.73,6.84-3.56,1.95-6.77,4.22-9.66,6.78l-6.78,27.06h22.82c1.1-2.54,2.55-4.83,4.41-6.85Z"/>
      <path class="cls-1" d="m436.25,137.96c-5.78,9.81-13.91,14.75-24.33,14.75-7.37,0-13.3-2.51-17.87-7.52-4.56-4.94-6.84-11.4-6.84-19.23,0-1.7.13-3.31.34-4.86l-.13.16-24.81,30.22h0s-44.94,54.74-44.94,54.74l50.55-46.25c4.07,4.95,9.07,9.04,14.98,12.29,8.44,4.64,18.02,6.99,28.73,6.99,9.81,0,18.93-2.43,27.52-7.37,8.51-4.87,14.67-11.1,18.47-18.78l-21.66-15.13Z"/>
    </g>
    <path class="cls-1" d="m314.06,128.04l23.35-28.47h0s43.75-53.36,43.75-53.36l-49.97,45v.02c-.56-.6-1.12-1.21-1.7-1.78-4.71-4.56-10.34-8.21-16.8-10.95-6.54-2.66-13.38-4.03-20.52-4.03h-45.46v103.23h45.46c7.15,0,13.99-1.37,20.52-4.1,5.3-2.24,10-5.13,14.13-8.64l8.19-28.25h-22.73c-1.11,3.08-2.73,5.93-4.9,8.54-4.49,5.4-10.19,8.13-17.03,8.13h-13.3v-54.51h13.53c6.84,0,12.47,2.66,16.88,7.98,4.41,5.32,6.61,11.71,6.61,19.16,0,.7-.04,1.38-.08,2.07l.08-.04Z"/>
  </g>
  <path class="cls-1" d="m438.91,60.34c7.44,1.07,13.52,6.31,15.78,13.29h71.31l-65.49-14.4V12.47c0-6.89-5.58-12.47-12.47-12.47h-214.54c-6.89,0-12.47,5.58-12.47,12.47v46.75l-65.49,14.4h71.31c2.26-6.98,8.35-12.22,15.78-13.29V21.47h196.27v38.86Z"/>
  <path class="cls-1" d="m454.69,177.71c-2.35,7.26-8.84,12.66-16.69,13.42v36.81l-97.23,50.68-97.23-50.68v-36.81c-7.85-.76-14.33-6.16-16.69-13.42h-70.41l65.49,14.4v42.11c0,4.25,2.38,8.15,6.16,10.09l106.01,54.49c4.19,2.15,9.15,2.15,13.34,0l106.01-54.49c3.78-1.94,6.16-5.84,6.16-10.09v-42.11l65.49-14.4h-70.41Z"/>
</svg>